<?xml version="1.0" standalone="no"?>
<!DOCTYPE svg PUBLIC "-//W3C//DTD SVG 20010904//EN"
 "http://www.w3.org/TR/2001/REC-SVG-20010904/DTD/svg10.dtd">
<svg version="1.0" xmlns="http://www.w3.org/2000/svg"
 width="10px" height="10px" viewBox="0 0 511.926298 512.032668"
 preserveAspectRatio="xMidYMid meet">
<metadata>
Created by Potrace Professional 1.1m
</metadata>
<g transform="translate(591.686833,391.644526) rotate(-113.00) scale(0.095238,-0.095238)"
fill="#d59574" stroke="none">
<path d="M2478 5370 c-279 -33 -492 -79 -688 -149 -386 -139 -697 -335 -990
-625 -428 -423 -679 -921 -776 -1540 -27 -172 -26 -565 1 -741 93 -601 339
-1095 755 -1515 658 -666 1598 -939 2512 -730 500 114 938 359 1304 730 416
420 662 914 755 1515 27 178 27 568 0 746 -93 601 -339 1095 -755 1515 -420
425 -927 682 -1530 774 -105 16 -507 29 -588 20z m557 -336 c508 -76 962 -305
1328 -671 369 -369 593 -814 673 -1339 26 -166 26 -506 0 -672 -76 -499 -289
-938 -627 -1296 -352 -371 -808 -615 -1322 -706 -132 -24 -184 -27 -388 -28
-254 -1 -362 11 -577 63 -482 117 -935 399 -1251 781 -128 154 -222 298 -309
477 -116 236 -179 436 -222 704 -26 160 -26 510 0 677 76 500 289 938 627
1296 389 411 902 663 1487 730 114 13 448 4 581 -16z"/>
<path d="M2650 4818 c-55 -12 -137 -83 -163 -140 -18 -40 -19 -91 -19 -907 l0
-865 -34 -38 c-18 -20 -45 -63 -60 -96 -23 -49 -27 -72 -27 -152 0 -84 3 -102
30 -155 84 -165 269 -258 434 -219 l52 13 361 -209 c820 -474 816 -472 900
-461 174 24 267 210 181 360 -38 66 -21 56 -682 438 -333 193 -503 297 -512
313 -6 14 -24 51 -39 83 -14 31 -45 76 -68 100 l-41 42 -4 860 c-3 817 -4 863
-23 898 -58 110 -170 163 -286 135z"/>
</g>
</svg>
