<?xml version="1.0" standalone="no"?>
<!DOCTYPE svg PUBLIC "-//W3C//DTD SVG 20010904//EN"
 "http://www.w3.org/TR/2001/REC-SVG-20010904/DTD/svg10.dtd">
<svg version="1.0" xmlns="http://www.w3.org/2000/svg"
 width="10px" height="10px" viewBox="0 0 49.020717 73.962040"
 preserveAspectRatio="xMidYMid meet">
<metadata>
Created by Potrace Professional 1.1m
</metadata>
<g transform="translate(-6.989642,75.956076) rotate(-360.00) scale(0.095238,-0.095238)"
fill="#d99477" stroke="none">
<path d="M256 778 c-58 -26 -91 -75 -96 -143 -16 -193 239 -261 329 -87 24 46
16 131 -16 176 -28 39 -95 74 -142 74 -18 0 -51 -9 -75 -20z"/>
<path d="M186 394 c-92 -32 -112 -74 -113 -225 0 -156 -13 -148 258 -148 270
0 257 -8 257 148 0 126 -10 159 -59 198 -15 12 -46 26 -68 32 -34 10 -47 8
-85 -11 l-44 -23 -45 22 c-53 26 -49 26 -101 7z"/>
</g>
</svg>
