<?xml version="1.0" standalone="no"?>
<!DOCTYPE svg PUBLIC "-//W3C//DTD SVG 20010904//EN"
 "http://www.w3.org/TR/2001/REC-SVG-20010904/DTD/svg10.dtd">
<svg version="1.0" xmlns="http://www.w3.org/2000/svg"
 width="10px" height="10px" viewBox="0 0 269.035601 329.696920"
 preserveAspectRatio="xMidYMid meet">
<metadata>
Created by Potrace Professional 1.1m
</metadata>
<g transform="translate(-60.964399,375.847878) rotate(-360.00) scale(0.095238,-0.095238)"
fill="#c4c4c4" stroke="none">
<path d="M861 3938 c-79 -24 -148 -78 -194 -153 -28 -44 -30 -205 -3 -254 45
-83 -7 -50 1361 -853 428 -252 778 -460 778 -463 1 -7 -713 -433 -1464 -874
-324 -190 -602 -358 -618 -373 -76 -70 -104 -217 -60 -313 25 -55 88 -119 143
-145 52 -26 148 -33 199 -16 22 7 558 317 1191 689 843 496 1162 689 1194 722
63 65 77 121 77 312 0 182 -16 244 -84 311 -26 26 -453 283 -1194 719 -1008
593 -1161 680 -1215 690 -70 12 -74 12 -111 1z"/>
</g>
</svg>
