<?xml version="1.0" standalone="no"?>
<!DOCTYPE svg PUBLIC "-//W3C//DTD SVG 20010904//EN"
 "http://www.w3.org/TR/2001/REC-SVG-20010904/DTD/svg10.dtd">
<svg version="1.0" xmlns="http://www.w3.org/2000/svg"
 width="15px" height="15px" viewBox="0 0 540.386074 254.793087"
 preserveAspectRatio="xMidYMid meet">
<metadata>
Created by Potrace Professional 1.1m
</metadata>
<g transform="translate(-14.805787,355.793087) rotate(-360.00) scale(0.095238,-0.095238)"
fill="#d99477" stroke="none">
<path d="M564 3730 c-3 -4 -8 -31 -12 -60 -10 -70 -47 -151 -95 -203 -46 -51
-145 -103 -213 -113 -28 -3 -58 -9 -68 -11 -28 -8 -22 -47 10 -73 l28 -22 -28
-19 c-40 -26 -40 -85 0 -117 l29 -23 -29 -13 c-25 -12 -28 -19 -29 -60 0 -37
5 -48 21 -52 32 -8 35 -34 6 -45 -22 -8 -26 -17 -26 -51 0 -33 5 -46 28 -62
l28 -21 -28 -18 c-40 -26 -40 -85 0 -117 l29 -23 -29 -13 c-25 -12 -28 -19
-29 -59 0 -39 4 -47 27 -56 33 -13 33 -29 0 -42 -23 -9 -27 -17 -27 -56 0 -38
5 -48 27 -57 29 -14 26 -39 -6 -48 -33 -8 -28 -83 7 -109 l27 -20 -27 -18
c-22 -14 -27 -26 -27 -60 0 -35 4 -44 26 -54 14 -6 26 -16 26 -21 0 -5 -12
-14 -26 -21 -22 -10 -26 -19 -27 -58 0 -39 4 -47 27 -55 33 -13 33 -30 0 -42
-22 -9 -27 -17 -27 -52 0 -34 6 -46 27 -60 33 -21 33 -29 0 -44 -22 -10 -27
-20 -26 -53 0 -33 5 -45 28 -59 l28 -19 -28 -20 c-17 -13 -28 -31 -28 -46 -1
-27 5 -29 92 -41 112 -15 234 -112 273 -219 13 -33 23 -75 23 -92 0 -18 5 -41
11 -52 11 -20 49 -20 2436 -20 2298 0 2425 0 2434 18 5 10 12 41 16 69 14 112
84 207 189 259 37 18 88 36 113 39 25 3 54 10 64 15 25 13 24 58 -2 72 -12 6
-21 17 -21 24 0 7 9 19 21 26 15 10 21 25 21 54 0 32 -5 43 -21 48 -27 9 -27
33 0 48 15 8 21 21 21 52 0 30 -6 45 -21 55 -27 17 -27 36 0 50 15 8 21 22 21
53 0 30 -6 44 -21 52 -27 14 -27 39 0 47 16 6 21 16 21 53 0 36 -5 47 -21 52
-12 4 -21 14 -21 22 0 8 9 19 21 26 15 8 21 21 21 52 0 30 -6 45 -21 55 -12 7
-21 19 -21 26 0 7 9 18 21 24 33 18 29 87 -8 110 l-28 19 28 20 c40 29 40 93
0 119 l-28 18 28 21 c23 16 29 29 29 62 0 34 -5 44 -21 48 -12 3 -21 14 -21
24 0 10 9 21 21 24 16 4 21 14 21 48 0 33 -6 46 -29 62 l-28 21 28 18 c41 26
41 90 0 116 l-28 19 28 22 c22 17 29 32 29 62 0 21 -4 39 -9 39 -5 0 -18 6
-29 15 -20 15 -19 16 11 41 26 22 30 29 20 45 -6 11 -25 21 -42 22 -187 20
-327 152 -349 331 l-7 55 -2427 2 c-1335 2 -2430 -1 -2432 -5z m4836 -76 c19
-161 169 -304 346 -331 l50 -7 -26 -21 c-34 -26 -34 -56 0 -78 31 -20 35 -63
6 -72 -39 -12 -40 -72 0 -84 29 -10 25 -48 -8 -74 -22 -18 -26 -28 -21 -50 4
-15 16 -30 28 -34 29 -9 26 -41 -5 -72 -33 -33 -33 -54 0 -76 33 -22 33 -48 0
-82 -15 -14 -26 -31 -26 -38 0 -6 11 -22 26 -35 33 -31 33 -51 0 -84 -29 -29
-26 -65 6 -75 25 -8 29 -68 4 -68 -9 0 -22 -12 -28 -27 -12 -25 -10 -30 16
-52 35 -31 36 -53 2 -85 -33 -30 -33 -41 0 -71 14 -14 26 -33 26 -43 0 -10
-12 -28 -26 -39 -15 -11 -26 -27 -26 -36 0 -9 11 -26 26 -40 31 -28 34 -64 7
-72 -33 -8 -36 -48 -7 -77 33 -33 33 -53 0 -84 -33 -30 -33 -41 0 -71 31 -30
33 -60 5 -78 -13 -8 -21 -24 -21 -44 0 -20 7 -35 21 -42 34 -18 25 -28 -32
-35 -142 -17 -283 -135 -323 -269 -6 -21 -14 -55 -17 -77 l-7 -39 -2408 0
-2408 0 -5 56 c-17 159 -166 307 -330 328 -31 4 -56 9 -56 11 0 3 12 16 28 29
31 27 27 64 -8 75 -25 8 -29 68 -4 68 9 0 21 13 27 29 10 25 7 32 -16 52 -34
29 -34 52 -1 83 33 30 33 41 0 71 -31 30 -33 60 -5 78 28 17 28 71 0 86 -27
14 -27 54 0 71 27 17 27 61 0 78 -28 18 -28 67 0 75 29 7 29 65 0 81 -12 6
-21 21 -21 36 0 15 9 30 21 37 28 15 28 69 0 84 -27 14 -27 54 0 71 27 17 27
61 0 78 -28 18 -28 68 0 77 29 9 29 63 0 81 -27 17 -27 57 0 71 28 15 28 69 0
84 -27 14 -27 54 0 71 29 18 29 72 0 81 -28 9 -28 59 0 77 28 17 27 60 -2 80
-13 9 -21 18 -18 20 2 2 32 9 67 16 164 32 280 143 318 305 l17 75 2401 0
2401 0 6 -53z"/>
<path d="M1000 3369 c-47 -13 -114 -83 -128 -132 -7 -26 -11 -316 -11 -865 l0
-825 24 -46 c14 -26 45 -61 70 -78 l44 -32 1976 -3 c1383 -2 1987 0 2015 8 50
15 98 56 124 106 20 39 20 68 20 884 l0 843 -23 41 c-13 23 -44 56 -69 74
l-46 32 -1981 1 c-1231 2 -1994 -2 -2015 -8z m4020 -54 c20 -13 46 -44 59 -70
l24 -47 0 -814 0 -815 -24 -46 c-27 -54 -63 -83 -113 -93 -20 -4 -915 -7
-1989 -7 -1852 0 -1955 1 -1987 18 -19 11 -46 37 -61 59 l-26 40 2 850 3 849
24 33 c51 72 -120 66 2072 67 l1980 0 36 -24z"/>
<path d="M2404 2884 c-136 -38 -233 -154 -279 -332 -20 -81 -15 -258 10 -338
57 -179 188 -294 334 -294 124 -1 202 39 280 142 l47 61 -36 36 c-19 21 -53
52 -75 69 l-40 32 -44 -48 c-68 -73 -141 -79 -211 -17 -51 45 -75 112 -75 215
0 70 5 94 30 144 60 123 180 139 266 35 l31 -37 71 72 c82 82 82 81 3 166 -80
87 -204 125 -312 94z"/>
<path d="M1086 2863 c-3 -8 -4 -58 -2 -113 l3 -99 107 -3 108 -3 0 -357 0
-357 97 3 97 3 3 355 3 354 105 0 105 0 0 116 0 115 -311 0 c-247 0 -311 -3
-315 -14z"/>
<path d="M1806 2404 l0 -473 97 3 97 3 3 470 3 470 -100 0 -100 0 0 -473z"/>
<path d="M2880 2407 l2 -470 97 -3 98 -3 0 125 0 124 35 50 c26 37 38 47 44
36 5 -7 46 -85 90 -171 l81 -158 116 -3 c69 -1 117 1 117 7 0 6 -60 123 -132
260 -73 138 -133 258 -134 267 0 8 57 101 127 206 70 104 128 193 128 197 0 3
-51 6 -113 6 l-114 0 -120 -186 -120 -186 -3 186 -3 186 -100 0 -99 0 3 -470z"/>
<path d="M3625 2407 l3 -470 286 -3 286 -2 0 115 0 116 -189 0 -189 0 0 74 0
73 168 0 168 0 0 100 0 100 -168 0 -168 0 0 73 0 74 189 0 189 0 0 110 0 110
-289 0 -289 0 3 -470z"/>
<path d="M4263 2762 l0 -116 110 0 111 0 0 -357 0 -358 97 3 97 3 1 32 c1 17
3 177 3 354 l1 323 105 0 105 0 0 116 0 115 -315 0 -315 0 0 -115z"/>
</g>
</svg>
